<?xml version="1.0" standalone="no"?><!DOCTYPE svg PUBLIC "-//W3C//DTD SVG 1.1//EN" "http://www.w3.org/Graphics/SVG/1.1/DTD/svg11.dtd"><svg t="1759194624364" class="icon" viewBox="0 0 1024 1024" version="1.1" xmlns="http://www.w3.org/2000/svg" p-id="5291" width="32" height="32" xmlns:xlink="http://www.w3.org/1999/xlink"><path d="M920 203.2C842.4 104 728.8 40.8 603.2 40.8 360 40.8 181.6 267.2 181.6 512c0 170.4 113.6 298.4 239.2 298.4 12 0 23.2-0.8 35.2-3.2C371.2 745.6 317.6 633.6 317.6 512c0-193.6 131.2-344.8 285.6-344.8 168.8 0 285.6 167.2 285.6 344.8-0.8 131.2-47.2 261.6-129.6 357.6-72 84-164.8 136.8-267.2 153.6 0 0 8.8 0.8 20 0.8 282.4 0 512-229.6 512-512 0-116-38.4-223.2-104-308.8zM842.4 512c0-170.4-113.6-298.4-239.2-298.4-12 0-23.2 0.8-35.2 3.2C652.8 278.4 706.4 390.4 706.4 512c0 193.6-131.2 344.8-285.6 344.8-168.8 0-285.6-167.2-285.6-344.8 0.8-131.2 47.2-261.6 129.6-357.6C336.8 70.4 429.6 17.6 532 0.8c0 0-8.8-0.8-20-0.8C229.6 0 0 229.6 0 512c0 116 38.4 223.2 104 308.8 77.6 99.2 191.2 161.6 316.8 161.6 243.2 0.8 421.6-225.6 421.6-470.4z" fill="#0089DB" p-id="5292"></path></svg>