<?xml version="1.0" standalone="no"?><!DOCTYPE svg PUBLIC "-//W3C//DTD SVG 1.1//EN" "http://www.w3.org/Graphics/SVG/1.1/DTD/svg11.dtd"><svg t="1625797571646" class="icon" viewBox="0 0 1024 1024" version="1.1" xmlns="http://www.w3.org/2000/svg" p-id="2996" xmlns:xlink="http://www.w3.org/1999/xlink" width="200" height="200"><defs><style type="text/css"></style></defs><path d="M283.648 166.912l30.208 54.784c-119.808 69.12-195.072 196.096-197.632 334.848H53.76C56.32 395.264 143.36 247.296 283.648 166.912m462.848 6.144c133.632 80.896 217.088 226.816 219.648 383.488h-62.464C901.12 421.888 829.44 296.96 714.752 226.816l31.744-53.76M302.592 898.048c61.952 38.4 133.632 58.88 206.848 58.88h0.512v-6.656l0.512 6.656c67.584 0 134.144-17.408 192.512-50.176l31.744 53.76c-68.608 38.4-145.92 58.88-224.256 58.88-85.504 0-168.448-23.552-241.152-69.12l33.28-52.224M509.952 8.704c52.224 0 98.304 33.792 113.664 83.456 19.968 62.976-15.36 130.048-77.824 149.504l-4.608 1.536v97.28l5.632 1.024c99.328 17.92 172.032 103.936 172.032 205.312 0 24.576-4.096 48.128-12.8 71.168l-2.048 5.12 4.608 2.56 77.824 45.056 4.096 2.56 3.584-3.072c20.992-17.408 48.128-27.136 75.776-27.136 10.752 0 21.504 1.536 31.744 4.608 30.72 8.704 56.32 28.672 72.192 56.32 15.872 27.648 19.456 59.904 11.264 90.624-14.336 51.712-61.44 87.552-114.688 87.552-10.752 0-21.504-1.536-32.256-4.608-30.72-8.704-56.32-28.672-72.192-56.32-15.872-27.648-19.456-59.904-11.264-90.624l1.536-5.12-4.608-2.56-74.24-43.008-4.608-2.56-3.584 4.096c-7.68 8.704-15.872 17.408-24.576 24.576-37.376 31.744-84.992 49.152-134.144 49.152-61.44 0-119.296-27.136-159.232-73.728l-3.584-4.096-4.608 2.56-74.24 43.008-4.608 2.56 1.536 5.12c10.24 37.376 2.048 77.824-23.04 108.032-22.528 27.648-56.32 43.52-92.16 43.52-27.648 0-54.272-9.728-75.776-27.136-24.576-20.48-39.936-49.152-43.008-80.896-3.072-31.744 6.144-62.976 26.624-87.552 22.528-27.648 56.32-43.52 92.16-43.52 27.648 0 54.272 9.728 75.776 27.136l3.584 3.072 4.096-2.56 77.824-45.056 4.608-2.56-2.048-5.12c-8.192-23.04-12.8-47.104-12.8-71.168C301.056 445.44 373.76 359.424 473.088 341.504l5.632-1.024v-97.28l-4.608-1.536c-37.376-11.776-66.048-40.96-77.824-77.824-9.728-30.208-6.656-62.976 8.192-91.136s39.424-49.152 70.144-58.88c10.752-3.072 23.04-5.12 35.328-5.12m0 176.64c31.232 0 56.832-25.6 56.832-56.832S541.184 71.68 509.952 71.68s-56.832 25.6-56.832 56.832c-0.512 31.232 25.088 56.832 56.832 56.832m0 507.392h6.656c77.312-3.584 139.264-67.584 139.264-145.92 0-80.384-65.536-145.92-145.92-145.92S363.52 466.432 363.52 546.816s65.536 145.92 146.432 145.92m359.936 126.976c31.232 0 56.832-25.6 56.832-56.832s-25.6-56.832-56.832-56.832-56.832 25.6-56.832 56.832c-0.512 31.232 25.088 56.832 56.832 56.832m-719.872 0c31.232 0 56.832-25.6 56.832-56.832s-25.6-56.832-56.832-56.832-56.832 25.6-56.832 56.832c0 15.36 6.144 29.696 16.896 40.448 10.24 10.24 24.576 16.384 39.936 16.384" p-id="2997" fill="#ffffff"></path></svg>