<?xml version="1.0" standalone="no"?><!DOCTYPE svg PUBLIC "-//W3C//DTD SVG 1.1//EN" "http://www.w3.org/Graphics/SVG/1.1/DTD/svg11.dtd"><svg t="1756352034606" class="icon" viewBox="0 0 1024 1024" version="1.1" xmlns="http://www.w3.org/2000/svg" p-id="7373" xmlns:xlink="http://www.w3.org/1999/xlink" width="20" height="20"><path d="M780.672 964.8H193.856A129.92 129.92 0 0 1 64 835.008V248.064a130.048 130.048 0 0 1 129.856-129.856h224.768a43.968 43.968 0 1 1 0 88H193.856a41.856 41.856 0 0 0-41.856 41.856v586.944c0 23.104 18.752 41.856 41.856 41.856h586.816a41.856 41.856 0 0 0 41.856-41.856V596.608a43.968 43.968 0 1 1 87.936 0v238.464a129.92 129.92 0 0 1-129.792 129.728z" p-id="7374"></path><path d="M497.024 554.752a43.968 43.968 0 0 1-31.104-75.136l384.896-384.896a44.032 44.032 0 0 1 62.208 62.208L528.128 541.888a43.712 43.712 0 0 1-31.104 12.864z" p-id="7375"></path><path d="M916.032 412.672a43.968 43.968 0 0 1-43.968-43.968V147.136H627.456a43.968 43.968 0 1 1 0-87.936h267.456c35.904 0 65.024 29.12 65.088 65.088V368.64c0 24.32-19.712 44.032-43.968 44.032z" p-id="7376"></path></svg>